<mxfile host="app.diagrams.net" modified="2021-05-09T11:29:45.251Z" agent="5.0 (Windows NT 10.0; Win64; x64) AppleWebKit/537.36 (KHTML, like Gecko) Chrome/90.0.4430.93 Safari/537.36 Edg/90.0.818.51" etag="SzkTaunASZWpm-jHMtAq" version="13.6.2" type="github">
  <diagram id="6lHEhyud9iSnzy1t7zZG" name="Page-1">
    <mxGraphModel dx="874" dy="699" grid="1" gridSize="10" guides="1" tooltips="1" connect="1" arrows="1" fold="1" page="1" pageScale="1" pageWidth="850" pageHeight="1100" math="0" shadow="0">
      <root>
        <mxCell id="0" />
        <mxCell id="1" parent="0" />
        <mxCell id="NZRimDnLW5HYxCW_bcgd-4" style="edgeStyle=orthogonalEdgeStyle;rounded=0;orthogonalLoop=1;jettySize=auto;html=1;" edge="1" parent="1" source="NZRimDnLW5HYxCW_bcgd-2" target="NZRimDnLW5HYxCW_bcgd-3">
          <mxGeometry relative="1" as="geometry" />
        </mxCell>
        <mxCell id="NZRimDnLW5HYxCW_bcgd-2" value="" style="aspect=fixed;html=1;points=[];align=center;image;fontSize=12;image=img/lib/mscae/Azure_Digital_Twins.svg;" vertex="1" parent="1">
          <mxGeometry x="450" y="400" width="63" height="70" as="geometry" />
        </mxCell>
        <mxCell id="NZRimDnLW5HYxCW_bcgd-3" value="" style="ellipse;whiteSpace=wrap;html=1;aspect=fixed;" vertex="1" parent="1">
          <mxGeometry x="290" y="560" width="80" height="80" as="geometry" />
        </mxCell>
      </root>
    </mxGraphModel>
  </diagram>
</mxfile>
